<svg  viewBox="0 0 100 100" fill="none" xmlns="http://www.w3.org/2000/svg">
<path fill-rule="evenodd" clip-rule="evenodd" d="M0 16C0 7.16345 7.16344 0 16 0H84C92.8366 0 100 7.16344 100 16V84C100 92.8366 92.8366 100 84 100H16C7.16345 100 0 92.8366 0 84V16ZM54.727 67.64H64.839V35H54.727V27.64H74.311V67.64H84.423V75H54.727V67.64ZM20.704 73.912C23.4773 75.1494 26.7413 75.768 30.496 75.768C33.312 75.768 35.7653 75.4053 37.856 74.68C39.9893 73.9547 41.7813 72.952 43.232 71.672C44.6827 70.3493 45.7707 68.8133 46.496 67.064C47.2213 65.272 47.584 63.3307 47.584 61.24C47.584 57.6987 46.6027 54.8827 44.64 52.792C42.6773 50.7013 39.8827 49.336 36.256 48.696L31.584 47.864C29.408 47.48 27.8293 46.904 26.848 46.136C25.9093 45.368 25.44 44.216 25.44 42.68C25.44 39.1387 27.5947 37.368 31.904 37.368C33.952 37.368 35.7867 37.752 37.408 38.52C39.0293 39.2453 40.4373 40.2693 41.632 41.592L47.072 35.512C45.4933 33.6773 43.424 32.2267 40.864 31.16C38.304 30.0933 35.296 29.56 31.84 29.56C26.7627 29.56 22.816 30.7547 20 33.144C17.184 35.4907 15.776 38.8187 15.776 43.128C15.776 46.4133 16.672 49.208 18.464 51.512C20.256 53.7733 23.1573 55.2453 27.168 55.928L31.84 56.696C34.016 57.0373 35.552 57.6133 36.448 58.424C37.3867 59.2347 37.856 60.4293 37.856 62.008C37.856 63.928 37.2587 65.4 36.064 66.424C34.8693 67.448 33.12 67.96 30.816 67.96C28.8107 67.96 26.8267 67.5333 24.864 66.68C22.944 65.8267 21.1733 64.504 19.552 62.712L13.984 68.856C15.6907 70.9893 17.9307 72.6747 20.704 73.912Z" fill="black"/>
</svg>
