<svg viewBox="0 0 607 139" xmlns="http://www.w3.org/2000/svg" xml:space="preserve" style="fill-rule:evenodd;clip-rule:evenodd;stroke-linecap:round;stroke-linejoin:round;stroke-miterlimit:1.5"><path style="fill:none" d="M135.504-583.746h776.703v246.375H135.504z" transform="matrix(.78095 0 0 .56294 -105.756 328.616)"/><path d="M628.668 496.475c0 4.494-1.094 8.342-3.281 11.543-2.187 3.202-5.419 5.628-9.694 7.278-4.276 1.651-9.476 2.476-15.6 2.476-5.847 0-10.858-.895-15.034-2.685-4.175-1.789-7.258-4.026-9.246-6.711-1.989-2.684-2.983-5.379-2.983-8.083 0-1.79.636-3.321 1.909-4.594 1.273-1.273 2.883-1.909 4.832-1.909 1.71 0 3.023.418 3.937 1.253.915.835 1.79 2.008 2.625 3.52 1.671 2.903 3.669 5.07 5.996 6.502 2.326 1.432 5.498 2.148 9.515 2.148 3.261 0 5.936-.726 8.024-2.178 2.088-1.451 3.132-3.112 3.132-4.981 0-2.863-1.084-4.951-3.252-6.264-2.167-1.312-5.737-2.565-10.708-3.758-5.608-1.392-10.171-2.854-13.691-4.385-3.52-1.531-6.334-3.549-8.441-6.055-2.108-2.506-3.162-5.588-3.162-9.247 0-3.261.974-6.343 2.923-9.246 1.949-2.904 4.822-5.22 8.62-6.95 3.798-1.73 8.382-2.595 13.751-2.595 4.216 0 8.004.437 11.364 1.312 3.361.875 6.165 2.048 8.412 3.52 2.247 1.471 3.957 3.102 5.13 4.892 1.174 1.789 1.76 3.539 1.76 5.249 0 1.87-.626 3.401-1.879 4.594-1.253 1.193-3.032 1.789-5.339 1.789-1.67 0-3.092-.477-4.266-1.431-1.173-.955-2.515-2.387-4.026-4.296-1.233-1.59-2.685-2.863-4.355-3.817-1.671-.955-3.938-1.432-6.801-1.432-2.943 0-5.389.626-7.338 1.879-1.948 1.253-2.923 2.814-2.923 4.683 0 1.71.716 3.112 2.148 4.206 1.432 1.093 3.36 1.998 5.786 2.714 2.426.716 5.767 1.591 10.023 2.625 5.051 1.233 9.177 2.704 12.378 4.414 3.202 1.711 5.628 3.729 7.278 6.056 1.651 2.326 2.476 4.981 2.476 7.964ZM700.852 497.608c0 2.028-.607 4.196-1.82 6.503-1.213 2.306-3.062 4.504-5.548 6.592-2.485 2.088-5.617 3.768-9.395 5.041-3.779 1.272-8.034 1.909-12.767 1.909-10.062 0-17.917-2.934-23.564-8.8-5.647-5.866-8.471-13.731-8.471-23.594 0-6.681 1.292-12.587 3.877-17.718 2.586-5.13 6.324-9.097 11.216-11.901 4.892-2.804 10.738-4.206 17.539-4.206 4.215 0 8.083.617 11.603 1.85 3.52 1.233 6.502 2.823 8.948 4.772 2.446 1.949 4.315 4.027 5.608 6.234 1.292 2.207 1.939 4.266 1.939 6.175 0 1.948-.726 3.599-2.178 4.951-1.451 1.352-3.211 2.028-5.279 2.028-1.352 0-2.476-.348-3.371-1.044-.895-.696-1.899-1.819-3.012-3.37-1.989-3.023-4.067-5.29-6.235-6.801-2.167-1.511-4.921-2.267-8.262-2.267-4.812 0-8.69 1.879-11.633 5.638-2.943 3.758-4.414 8.898-4.414 15.421 0 3.062.377 5.876 1.133 8.441.756 2.565 1.849 4.753 3.281 6.562 1.432 1.81 3.162 3.182 5.19 4.116 2.029.935 4.256 1.402 6.682 1.402 3.261 0 6.055-.755 8.381-2.267 2.327-1.511 4.385-3.818 6.175-6.92.994-1.829 2.068-3.261 3.221-4.295 1.154-1.034 2.565-1.551 4.236-1.551 1.988 0 3.639.756 4.951 2.267 1.313 1.511 1.969 3.122 1.969 4.832ZM731.217 494.267v13.602c0 3.301-.776 5.777-2.327 7.427-1.551 1.651-3.519 2.476-5.906 2.476-2.346 0-4.275-.835-5.786-2.506-1.512-1.67-2.267-4.136-2.267-7.397V462.53c0-7.317 2.645-10.976 7.934-10.976 2.704 0 4.653.855 5.846 2.565 1.193 1.71 1.85 4.235 1.969 7.576 1.949-3.341 3.947-5.866 5.995-7.576 2.049-1.71 4.783-2.565 8.203-2.565 3.42 0 6.741.855 9.963 2.565 3.221 1.71 4.832 3.977 4.832 6.801 0 1.988-.686 3.629-2.058 4.921-1.372 1.293-2.854 1.939-4.445 1.939-.596 0-2.038-.368-4.325-1.104-2.287-.735-4.305-1.103-6.055-1.103-2.386 0-4.335.626-5.846 1.879-1.511 1.253-2.685 3.112-3.52 5.578s-1.412 5.399-1.73 8.799c-.318 3.4-.477 7.547-.477 12.438ZM807.815 508.585v-2.088c-1.948 2.466-3.997 4.534-6.144 6.204a22.659 22.659 0 0 1-7.04 3.729c-2.545.815-5.448 1.223-8.709 1.223-3.938 0-7.467-.816-10.589-2.446-3.122-1.631-5.538-3.878-7.249-6.741-2.028-3.461-3.042-8.432-3.042-14.915v-32.273c0-3.262.736-5.698 2.207-7.308 1.472-1.611 3.42-2.416 5.846-2.416 2.466 0 4.455.815 5.966 2.446 1.511 1.63 2.267 4.056 2.267 7.278v26.069c0 3.778.318 6.95.955 9.515.636 2.566 1.779 4.574 3.43 6.026 1.65 1.451 3.887 2.177 6.711 2.177 2.744 0 5.329-.815 7.755-2.446 2.426-1.63 4.196-3.758 5.31-6.383.914-2.307 1.372-7.358 1.372-15.153v-19.805c0-3.222.755-5.648 2.267-7.278 1.511-1.631 3.48-2.446 5.906-2.446 2.426 0 4.374.805 5.846 2.416 1.472 1.61 2.207 4.046 2.207 7.308v47.188c0 3.102-.706 5.428-2.118 6.979-1.411 1.551-3.231 2.327-5.458 2.327-2.227 0-4.067-.805-5.518-2.416-1.452-1.611-2.178-3.868-2.178-6.771ZM893.481 485.856v21.655c0 3.42-.775 5.986-2.326 7.696-1.551 1.71-3.599 2.565-6.145 2.565-2.465 0-4.464-.855-5.995-2.565-1.531-1.71-2.297-4.276-2.297-7.696v-25.95c0-4.097-.139-7.278-.417-9.545-.279-2.267-1.035-4.127-2.267-5.578-1.233-1.452-3.182-2.178-5.847-2.178-5.329 0-8.839 1.83-10.529 5.489-1.69 3.659-2.535 8.908-2.535 15.749v22.013c0 3.381-.766 5.936-2.297 7.666-1.531 1.73-3.55 2.595-6.055 2.595-2.466 0-4.484-.865-6.055-2.595-1.571-1.73-2.357-4.285-2.357-7.666V460.92c0-3.063.706-5.389 2.118-6.98 1.412-1.591 3.271-2.386 5.578-2.386 2.227 0 4.086.745 5.578 2.237 1.491 1.491 2.237 3.549 2.237 6.174v1.551c2.824-3.38 5.846-5.866 9.068-7.457 3.221-1.591 6.8-2.386 10.738-2.386 4.096 0 7.616.815 10.559 2.446 2.943 1.63 5.369 4.096 7.278 7.397 2.744-3.341 5.687-5.816 8.829-7.427 3.142-1.611 6.622-2.416 10.44-2.416 4.454 0 8.292.875 11.513 2.625 3.222 1.75 5.628 4.255 7.219 7.516 1.392 2.943 2.088 7.577 2.088 13.9v31.797c0 3.42-.776 5.986-2.327 7.696s-3.599 2.565-6.144 2.565c-2.466 0-4.485-.865-6.056-2.595-1.57-1.73-2.356-4.285-2.356-7.666v-27.382c0-3.5-.149-6.304-.447-8.412-.299-2.107-1.104-3.877-2.416-5.309-1.313-1.432-3.301-2.148-5.966-2.148-2.148 0-4.186.637-6.115 1.909-1.929 1.273-3.43 2.983-4.504 5.131-1.193 2.744-1.79 7.596-1.79 14.556ZM947.411 507.869v-70.633c0-3.261.725-5.727 2.177-7.397 1.452-1.671 3.41-2.506 5.876-2.506s4.454.825 5.966 2.476c1.511 1.65 2.267 4.126 2.267 7.427v70.633c0 3.301-.766 5.777-2.297 7.427-1.531 1.651-3.51 2.476-5.936 2.476-2.386 0-4.325-.855-5.816-2.565-1.492-1.71-2.237-4.156-2.237-7.338ZM1025.98 488.66h-31.859c.04 3.698.786 6.96 2.237 9.783 1.452 2.824 3.381 4.952 5.782 6.383 2.41 1.432 5.07 2.148 7.97 2.148 1.95 0 3.73-.229 5.34-.686 1.61-.457 3.17-1.173 4.68-2.148 1.51-.974 2.9-2.018 4.18-3.131 1.27-1.114 2.92-2.625 4.95-4.534.83-.716 2.03-1.074 3.58-1.074 1.67 0 3.02.457 4.05 1.372 1.04.915 1.56 2.207 1.56 3.878 0 1.471-.58 3.191-1.73 5.16-1.16 1.968-2.9 3.858-5.22 5.667-2.33 1.81-5.25 3.311-8.77 4.504-3.52 1.193-7.57 1.79-12.14 1.79-10.46 0-18.596-2.983-24.403-8.949-5.806-5.965-8.71-14.058-8.71-24.28 0-4.812.716-9.276 2.148-13.392 1.432-4.117 3.52-7.646 6.264-10.589 2.744-2.943 6.124-5.2 10.141-6.771 4.02-1.571 8.47-2.357 13.36-2.357 6.37 0 11.83 1.343 16.38 4.027 4.55 2.685 7.96 6.155 10.23 10.41 2.27 4.256 3.4 8.591 3.4 13.005 0 4.096-1.17 6.751-3.52 7.964s-5.65 1.82-9.9 1.82Zm-31.859-9.247h29.529c-.4-5.568-1.9-9.734-4.5-12.498-2.61-2.764-6.04-4.146-10.29-4.146-4.06 0-7.39 1.402-9.996 4.206-2.605 2.804-4.186 6.95-4.743 12.438ZM1067.92 460.562v1.968c2.86-3.778 5.99-6.552 9.39-8.322 3.4-1.77 7.31-2.654 11.72-2.654 4.3 0 8.14.934 11.52 2.803 3.38 1.87 5.9 4.514 7.57 7.935 1.08 1.988 1.77 4.136 2.09 6.443.32 2.306.48 5.249.48 8.829v30.305c0 3.261-.75 5.727-2.24 7.397-1.49 1.671-3.43 2.506-5.81 2.506-2.43 0-4.4-.855-5.91-2.565-1.51-1.71-2.27-4.156-2.27-7.338v-27.144c0-5.369-.74-9.475-2.23-12.319-1.5-2.843-4.47-4.265-8.92-4.265-2.91 0-5.55.865-7.94 2.595-2.38 1.73-4.13 4.106-5.25 7.129-.79 2.426-1.19 6.96-1.19 13.602v20.402c0 3.301-.77 5.777-2.3 7.427-1.53 1.651-3.51 2.476-5.93 2.476-2.35 0-4.28-.855-5.79-2.565-1.51-1.71-2.27-4.156-2.27-7.338V460.8c0-3.102.68-5.418 2.03-6.95 1.35-1.531 3.2-2.296 5.55-2.296 1.43 0 2.72.338 3.88 1.014 1.15.676 2.08 1.69 2.77 3.042.7 1.352 1.05 3.003 1.05 4.952ZM1179.35 496.475c0 4.494-1.09 8.342-3.28 11.543-2.19 3.202-5.42 5.628-9.69 7.278-4.28 1.651-9.48 2.476-15.6 2.476-5.85 0-10.86-.895-15.03-2.685-4.18-1.789-7.26-4.026-9.25-6.711-1.99-2.684-2.98-5.379-2.98-8.083 0-1.79.63-3.321 1.9-4.594 1.28-1.273 2.89-1.909 4.84-1.909 1.71 0 3.02.418 3.93 1.253.92.835 1.79 2.008 2.63 3.52 1.67 2.903 3.67 5.07 5.99 6.502 2.33 1.432 5.5 2.148 9.52 2.148 3.26 0 5.94-.726 8.02-2.178 2.09-1.451 3.14-3.112 3.14-4.981 0-2.863-1.09-4.951-3.26-6.264-2.16-1.312-5.73-2.565-10.7-3.758-5.61-1.392-10.18-2.854-13.7-4.385-3.51-1.531-6.33-3.549-8.44-6.055-2.1-2.506-3.16-5.588-3.16-9.247 0-3.261.98-6.343 2.92-9.246 1.95-2.904 4.83-5.22 8.63-6.95 3.79-1.73 8.38-2.595 13.75-2.595 4.21 0 8 .437 11.36 1.312 3.36.875 6.16 2.048 8.41 3.52 2.25 1.471 3.96 3.102 5.13 4.892 1.18 1.789 1.76 3.539 1.76 5.249 0 1.87-.62 3.401-1.88 4.594-1.25 1.193-3.03 1.789-5.34 1.789-1.67 0-3.09-.477-4.26-1.431-1.17-.955-2.52-2.387-4.03-4.296-1.23-1.59-2.68-2.863-4.35-3.817-1.67-.955-3.94-1.432-6.8-1.432-2.95 0-5.39.626-7.34 1.879-1.95 1.253-2.92 2.814-2.92 4.683 0 1.71.71 3.112 2.14 4.206 1.43 1.093 3.36 1.998 5.79 2.714 2.42.716 5.77 1.591 10.02 2.625 5.05 1.233 9.18 2.704 12.38 4.414 3.2 1.711 5.63 3.729 7.28 6.056 1.65 2.326 2.47 4.981 2.47 7.964Z" style="fill-rule:nonzero" transform="matrix(.72166 0 0 .72165 -272.714 -279.295)"/><circle cx="958.071" cy="268.506" r="49.361" style="fill:none;stroke:#000;stroke-width:10px" transform="matrix(1 0 0 1 -882.378 -199.158)"/><path d="M958.071 219.145c13.621 0 20.432 24.681 20.432 49.361 0 24.681-6.811 49.362-20.432 49.362-27.243 0-49.362-22.118-49.362-49.362 0-27.243 22.119-49.361 49.362-49.361Z" style="fill:none;stroke:#000;stroke-width:16.45px" transform="translate(-506.776 -93.893) scale(.60796)"/></svg>